<mxfile host="app.diagrams.net" modified="2022-02-01T21:24:34.896Z" agent="5.0 (Windows NT 10.0; Win64; x64) AppleWebKit/537.36 (KHTML, like Gecko) Chrome/97.0.4692.99 Safari/537.36" etag="_MahxeLPQL3nxIsKDncM" version="16.5.2" type="github">
  <diagram id="qB7N5VlCFNcj3Xe4tV10" name="Page-1">
    <mxGraphModel dx="1422" dy="794" grid="1" gridSize="10" guides="1" tooltips="1" connect="1" arrows="1" fold="1" page="1" pageScale="1" pageWidth="850" pageHeight="1100" math="0" shadow="0">
      <root>
        <mxCell id="0" />
        <mxCell id="1" parent="0" />
        <mxCell id="TELjzrbx2Z44kuAUIH1x-12" value="root" style="shape=umlFrame;whiteSpace=wrap;html=1;" vertex="1" parent="1">
          <mxGeometry x="20" y="20" width="900" height="580" as="geometry" />
        </mxCell>
        <mxCell id="TELjzrbx2Z44kuAUIH1x-10" style="edgeStyle=orthogonalEdgeStyle;rounded=0;orthogonalLoop=1;jettySize=auto;html=1;entryX=0;entryY=0.5;entryDx=0;entryDy=0;" edge="1" parent="1" source="TELjzrbx2Z44kuAUIH1x-5" target="TELjzrbx2Z44kuAUIH1x-9">
          <mxGeometry relative="1" as="geometry" />
        </mxCell>
        <mxCell id="TELjzrbx2Z44kuAUIH1x-5" value="Planet" style="swimlane;" vertex="1" parent="1">
          <mxGeometry x="50" y="70" width="350" height="460" as="geometry" />
        </mxCell>
        <mxCell id="TELjzrbx2Z44kuAUIH1x-1" value="Kylo&#xa;" style="shape=image;verticalLabelPosition=bottom;labelBackgroundColor=default;verticalAlign=top;aspect=fixed;imageAspect=0;image=data:image/png,iVBORw0KGgoAAAANSUhEUgAAAMgAAADICAYAAACtWK6eAAAABHNCSVQICAgIfAhkiAAAAAlwSFlzAAALEwAACxMBAJqcGAAAGNhJREFUeJztnXmUXUWdxz+9QFayEBJCQgADIiCLgARwA0HBYTmCiiKLICI6KjpwHHFXdpFVGAQBxWWUdQA5yMCALBIQBQTCDglLEskCCRLoJCShe/749juv+/Wruvv23u9zzu9wwrv3VnXdqltVv/otYBiGYRiGYRiGYRiGYRiGYRiGYRiGYRhGnY6iK9AibAhsAbwD2BiYCkwG1gPGAesAI4HhQDfJ2r0XWAWsAHqA14HXgEXAAmAe8CIwG3gaWJ6grLbHBkh0pgC7ATOAnYBtgDGF1shNLxos/wAeAO4D/gasLrBORovRhQbEucBTQF/F5Q3gT8CX0SxnGLHYCjgbLV2K7tRZydvAHcChaPlnGIHsAdxG8Z03b3kV+CEwPnkTGq3IDsA9FN9Ri5ZlwHeBYcma02gVRgEXoeVG0Z2zTDIHzaZGG7MD8AzFd8aySi9wJrBW3AY2qsvH0RlB0Z2wCnIb5VVlGxlwBLCG4jteleQRYEKcxjaqxT7ooKzoDldFuQ9ZBBgtyhbAmxTf0aos10Ru9QrTVXQFcqQLnSBvUnA9qs5WwEtoyWW0EN+m+K9vq8gyYP1ozV9NWnEG2RzYC73AdZBB5gbAlZi6Mi2GIavkB5H18hbAjsBmwLMF1ssIYCw64Cr6C9vOckjgWzIK4yqK7yDtLm+iGcUoGZ+l+M5hInkALcEqT6vsQdYDbsZ09GVhCrJSuLfoihjicor/apoMluWYSr0UzEBGdUV3CJOhcr3nvRk5cS/FdwQTt+zufHNG5hxA8R3AxC9/d769ClDlTXonsguaVHRFDC9TgUdRCCIjRw6m+K+jSTh52PEOS09VZ5AO4Aps9qgKk4GHqKAZSmfRFYjJfsDWRVfCiMS3iq5AHKoaWfEuFMwtDVYDc4GXUeibZSi0Zy+wNjAahcKZgGasif3/v4r0AUuBV/plKfp7V/T/1o0OW8ejv3Ua+nvTYmcqtmmv4gB5D/HXtEuRWvjB/mc8gUJz9kZ8zrrIQnhKv0xF8XlrMg2d7ufJchSXd36//LP/3y/3ywIUBG9NxOeuA7wL2BZZ7O6M3kGc5fkVVMyYsYoD5JfAUSGv7QVmIkepW4DH0JcyD0agwbJRg2yMAlrHYRXq9C+hWW9u/7/nAksS1jcKY9AM/m/A/ujvDMNq1AYLM6pX2zOOcJFIZqLYs2kuD4zmdAC7AOejJWrQu/leMdVsD76Gu+H/BZyDlgNGMayN1O/34X5PL1DNlUsleJihDT4fOA6tlY3ysCtwE80HyZ4F1qtl2ZbBjbwQzSgWQ7bczEAR5Ae+u98WWqMIVGmqOxP4JvAWcBbwE+S9loQOlBXqnWjzPBmpOEcgLc0qlE9jKVpfLwIWo8G5kGololkL/X2Tkb/++kh1vS6afddG8YlXoIxVC5Ey4Fmk6Uuq3DgAOA+1c09/+T0Jn5k5VRkgHUhT8xTwFZReLA7rIOvS3ZC6cnsUvDoOfegs4WXqatWairWmWZoHrIz5/CiMQKrlgbIhUj/XZD3iv+8eFObnfuAvwJ3owxGVkcBJaEl8GFL7lpqqDJBt0VR9WYx7JwGfAj4JfIj8XUFfZbBa9iX0lY7LSOrq4prqOO8zlzUoVcR1yGB0UcT734/2ISelXC8jJB0oxOgNaJlUtLFeK8tqtBn/ONFMl6pqB1hp1kbnH89SfMdpR3keOBZL51Y6uoBj0BKm6E5ion3ZsVigvlKwBzCL4juFyVB5GpmjVJaqbNKbMRadnIe1y2rGq8hP4SngOeoWvSuRynMEgy15JyE16ZQBMjZB+XnQizbRNaPFhf3/XkTdovd1tFcbhrR6k9HmfwuUB35bkik3rkAzSp72YqlQ1QHyIeD3hDeSq9ED/B9wK/Bn4quLBzKaoZa801AHq/13dArlNKMPdfiBauWa1FTPC4huwdvICKQW3xspP7aN8YzFSLV7W8K65ErVBkgHysB6IuG1IH1oQPwGuBEZO+bNeOpq2Ykka/eaRW9tQKxKXLvobIlyq38ezaJh6QVOA35EdBcDI4DhRIu9uxz4GYo4bmTDWsg48SGi7U2ux6Jgpsp44K+Ea/xVwH8hhyYjPw4EHif8IHkQy3mYChORmUOYRr8DTf9GMXQDxyM33jDvaxYWeCMR46l7AfrkDZJps4x0mYqUIGEGyRPoPZeSMm/SRwC3A+8LuO4hlPrguZjlTEMecVsDm6Kl2RikBOhBjlivIi1MTV26gLqWKA9jxKTU3H8HqqfXR7PzeqiDjkQb52Xo75uDvvB/Q8qAqHSiSCYnE6wingl8lBK2ZZkHyIXIctfH1SjneZSG7UTWvJ8CPgZMj1W7OkupB0ioWfMO9BWfh0z0s2I4Q9XKA1XOU0n+hX4e+fT/D4ooE0UDtRcyaBwTcN15yMq3VJR5gMzB33nPAL6DpukwTER2WscQ/fwkCX1o9qlZ9L6ewjPHUbfozXsNPw+4FLgIzaxheDfwv2jAuvgHippihGAi/nXryRGeNQE5W4UJ9mASXnr623XdkO9hUzS4XM9bSYtkpcqDfXE35Bkhn9GJZoylnmeZJJclwJcItxrZDO3hXM+yaJkh+RHNG/CqkPdviNbKRXeedpI7Cbd03Qn3bF6poHJFciNDG+9BpI0J4iPoq5bkZffSflmr1qTwjFcIF7HEFZn/9BD35kpZN+lzGbyhewMZyL0YcN/RaPMYZS37OFIn34908vOob6RHU7fkXZ/m4UZr/t5lZDV1n/n51C16X2awRe9ryAKhC/0t04HtkGvsXkRTBKwBvgj8OuC685GF70BuQpEaS0MZB8g49MIG8kWC/dG/ikxMwrAAaWJ+RzoWvcOpD5iBYUZratdNiB8cwkUfsuSd20RqgSMW91+XhE5kPf0F4NOEC9zdh0Iy/dxzzQgU52xgoL8XUZSZ0lDGAfIBFBCgxi0EO918HsXsDfp7FiIN2GXkbwU7Ac08afhi96CBkOX5SjOmoNChxxA8S/cBR+KPgTUD2djVfNn7UOSZ0ocDKpIvU1+TrgY2D7j+QwQHZuhFU3rQYZURjm1QGoOgPckq9H58XNZwj52FBHAB9ca6MODaKWgN7XtJS9CJuZEu3cDZBA+ShWj/5mIy2mPWrj80uyq3BrejhnqT4M3hzfhfzmwUNdHIjqORe7LvPdwc8IwfDrg2yiFwWzIfNZRvgwfad/heyhzimZRMRhqc7chmc10WRqKPx27AQUgRcgTwYaLbbn2OYLX4YZ77x6MPYh+yrysNZdukj6Qeb3cr3KmDRyPr3cmO319DPtRhLHxHIcPFA4AP0tyJpwctFRYgw8Sa1AwU5/b/VhY30k6kkt4YDfKBkRhrPvO+JD596NzpCuByZNEcxAkoXrKLhWhAuuIp14xTH0EhYY0m1CK43xJw3Yn4N+Rh9hwjgR+gwZTGQVst1+G9wJXAT5Gqc380G8XNKuViMkoxcAjSLF2KlqdzSDea5DLUTmGCwV0X8Kzve+7dDC3VloUop205ADXkJzzXjMbfqYOWZqCO9bznGSZD5UmCbaUmUD97aSZL8Ed4ua3/OvMydHA8Ot31ReTzZZlaTLAq91B0flB0h6uiLEOB+nwE7Q2/5rm3ZoKyS0AZbcvxwI89v3ehfUWcxgftNYI0LiZ+6cHfgTvxB294wnPvMLT3+YjnGsPD4bgbfjH+bFNbo5dbdAdrBXkZv/3ZYQH3v9dzr5EAX1ysUzz3dQIPeO41iS5/8LT32khr5bq3dK61rcJMmjf42/hTPvtmHpP4squnzb/vue8sz32lIkrCkzIw1fH/a2bbLr6dQV0Mf87zxzy/ud5j6ajSAOnAHQf2n577tkeHjkb67IP7fMT3TiozQKrkJL8ebl+E+Z77iorNOxsFT8uLqcB+OZYH+mhNRYeTjfjeiQ2QDPA1qu9rtVHaFQnBWyhp6Kwcy+xEoVd3y7FMkNlKswGyGFkXNDvTihIRvlCqtMTyDRDf18oXiykrziTfwQEysTma/J2oXAahvcg+rRnDqUjg6lYZIL4ZJO8B8gx+lXOWzEY2YHnis5j2vZc8g/fFpkoDxDctl2UG6UW+23l/xQdyGun42YfF19Ervw+p0gCpwgxyAbLmLZKVKJBbXvjat/KarFbZpPu+VAtw+42kyQu4zwU2RdHL02QFSivXjDuQr/fRKZfZjIWe3yo/g1SJR2l+KtsYIqiRCYRPwJNEXAZ2nSjmVhZlHu75u8fij4WbhlyD/yPrChDXh/xXjBR5leYN/UyIe7MeJJd7yj4+w3JfwW80+LEMyw4aHCD3Xdf9QX7qpaBsLrcuhqMlhYsTCNbejCF5LhAXz9E8ltN0ZHKRZcLK/8Y/k2xFuGBvUXkcf3rpcShe73scv89CnpZGCkwn+Iv274XVrjkdaC+Q5RKnJmULazQKuA9/ncPmFjFCMIbgDKq9+L+keTMwAF7W8hJ+V9Y8GUY9dJNPri+qgq3KBvi9CfvQlH9gURUcwEaEz/SalgQF2cuDbuCPBNf1VrJZ9rU024S4ZmOCNTNvoYjkRXIL+Q6O2gwaFOYzSzqRE1VQPe8heE/WTf6Gl6VnEYMjfbt4V/+1vpfQg2JcFcFRAXXLUp4jXA6VLLgkRP0eJDioRhfyHL04s5pWlD50sBRG07QtwanVXif/QMjTUJC1ogZIH3BO5n/lUM4JUa/HCTZQ7ECHn32UZICUSc3b1//fl9BSYW7A9TujzaBvc7oMnXCnRR/Slt3v+P1Wil/e9aLZ8z7H78ejUKFpsRbBDmmz0Tt1WffWuJi6mcwvkKLD6KdxqbBBiHt2J9/stRd46nJMjvUIkmdwL7XyOGEfKHPR3jGI8xruK8UMUiYaG/ZJ/IEYauxDuqE2XTILd1ihTRgcwr8M4ltq7ZVTHRYRnN8FZIHceK8NkAaaNfAjhIs0fhDpJKF0yUrcWrY8DwSjyNsoW5eL8zMufynaKwbxA8f9NkAacDX03wmXGepIsstM+y1PucdmVGYaMht3+obhaFbMotw30B4xiG96nmEDpAFfg88kXJ4OX9zeuPJX3HkFNyffPVAc8SU23ZL0o00uR3vDIL4a8BwbIA0ENfyfCReC/zshnhVWVgBbOMrpIjsz9jSlF3+s2yNTLGsV2hMGcRTBs71PIdKWnE7wC7iZ8pgo+CIHlk3mIe1VGTiE4ADiTxFOQdN2XEjwy76O4j0htycfzVma4vI+zJNPoFBAvnq+SEUCOhRBB/A7gl/2HyjOn344CuFfdIePI5/MoD3Csi/BH5UFFBforzJ0I1PooJd9OcVYApwbom5llVfJxz+/kT3Rfs5XtyUEZ7Ay+hlGPR2XT8KkW0uTPclOlZyX5O3q+kGCNWXLgBk516vyjEIhdIJe+Nk51Wc8+ZpoZCl5eV/OINgvZgX5h0sNTZmMFZsR5Ndc41T8GVTT4BqUwq0VWAHsgDvN9ngUqigJk5C/vM8SYjVycPtTwrLamknoRWb9Vf21pw5H5lB+3vIQ7mSptTz0WZb/NvAZT5sbEZiGzOCzellP4z6p35T83Wfzkp942nwnglWySeSLnrKNGGyG1IBpv6iVuJdw3VTjtDyuvI3fLOR7GZV7vKdMw8GxIa7ZhmBPwqjydU95p6ZcVhllHrCu4+/vBO5KubwTPe1dYyssFfQQnge+EuK6nUnP9+IGTzm70z451a/1tMNUFMExjXLO85RTYzpKM71HiGvbivsJH9vqwwQfPAXJXNxfznVpHZVuWPHtCfYm+cfiVwRrTaciF+k+SnJoWCY1743A/uhFHERwYLH9gB8nKO8buFMVXA8ckODZVWQ5CnLhUv0eRfzDvEXASejdupgI3I1M8EHaS1/m4rbjMupfmyJjW2XhU1IVeQS3W3GWjAX+MaAeb+P2wWlbGjfEPcD7c67DdkirVXRHLVLy9sMYhRziBtZhUc51qATNvtz/QqbleTCKfA4kqyAfT9iWYRmGQiU1lv9ITuVXivE015a8Qn1dmiW/blJ2u8oSsk9d1418e5qV//mMy64srthS81Fonaw4wlFuO8tMsnNM6wR+6yj3fqqVOzNXOoEHaN5wc8gmAf0WwJuOMttdTk/Qri46UCCJZuX1Au/NoMzYlEnNW2NnFEmkWd2eJPom8tH+5zVjBAorVAqdewnpQ0EYbnH8/i50JhWFHXEnF72EfDP0VpZfkc4X8DX8S7NLUyqnlWUx7pl7NAqwkEY5S/HnWzQGMIl0oqT7tDGHp/D8dpG/4N6PbE06scHCmBkZA/gGyRr8LM+ztyb9gGmtLmd42vPIhM9+GDsYjEwX8UNj+jQwaS4L2kl6kSmQi8sc94WRvA+EK8NwFCXExW5Eb+yF+LVdV8Z4polkKfAOR7uOYLC5SFj5reN5oCiZG3t+b3m+jRppX881VxC+sdfgdwAqc6DpqsiD+NNALInwrGW488C8E9nkXeH4veWZiNKk9aEzDlfc3amE9//wRWF/H9WLhlhWudTTznsR3jTe5VnYweBEqG0ZEugCBjeWz9PsBIIb+2rP/ZPQaXzRHauV5Aue9v5WiPufxB004hMN195NOc/sMmNThn7NV+AONbM2SivmauxZuIMudJO+26iJ3pcrSWoH8PuA+10utaOQM1vj9W2VFtrVeL6of3s77lmCe+MICixXdGdqVXkBt1dmzUqh2X3XOO4BRVppds8s2sRG693416gHeu69oeHaNcBHPdcf7CnHJB25FfcZxhSGLm2XAxs5rt8Sf6ihzzruaymuxd/gLwEjHfduwmBf9P/wlLMddhiYl/gOEXdk8En79xzXdaAkSb5ynqHFDxS3IVzw59M8z/hx/zWXe66ZgKKkFN1x2kl8URIPQO99Nm5tZdjZvqVnkbBnGm8hS9FmDEd7GJcuvgu4PWQ5JulJD/6stsfh3miPQaF+wpTzOC26F5lOtFTNt8cs55wIZZikK8/j3rT7iPrOfAfLleVnRG/wqMGNj4hRhkm6cgfRPBG3IXqO+zsiPL8SjKZ+ah5F5vffG4ZdsIgkZZELA95VjQ5kSh+njHeHLKMSHEX8xvaZrdfYkGwCW5vElzCegZ9L8HyfkWvlSLJpXo3fJXYkynVRdIcwGSyr8GeOGofiX8V9/kJaROU7iuRGgnd7nr8j1c8b2KriW2o12uLFkVIFeIjLTqTT2Id5ynCFkDEpTnw+5juQTuT8YxzPT4089MlppR0+C8VwbcYJyCTeKA8/QGmnG+lE2YnT6HsbpvAML3kMkHVSes76wMmO3xag6OFGOZgFXOz47SgU2ikNfAlCK0MSTUWjrMGdLm0tLLZuWeSDjnc0Ac0qaZVzmaOc1MhjBvHlhIhKF/oyNav3ahQJxSiWPwD3OH77KRokxgAOJP0vlG9z9scMyjMJJ2/gDpjxgQzK+7mjrNTIYwZ5PYNnnop7/XkcOlE38udUZHTYSBdwfgblLcvgmYPIY4AszuCZ6+H2YX+ecKfvRrrMRkaHzfgC2eR5yaJv5c44spnO1+A+YR+JHK+KXnK0k+zjeBfjSC9LbqNENWYtLa+RTQPd5inz0xmVaTJUbvS8h/MyLHcnT7mV4n6yaySfD/sdGZZrIlmJOxrNVkQ3ZY8iroPjyvFLsmukF3C7cW6NPwiASXI5xdH2HWiGz6rcuY5yK8nXyfYl/chTdhxHLZNwMg93gI3G4G9py3WOcivJrmTbWMtxJ8oZSzKzahO3uDbJeShJ/tNRdiUZRvbefr6NYhKHLZPmcpenvU/Jofy07LlKw51k32h7OsruwB3lzyS6rEG+5M3YmOw/hktpEWepMjEDc6xKS7I4FTdKQJbatHaRxejwz2hB0koO2s7iSuFstAhJk4O2szxAi0Y1NOp0A49RfGermvQidb3RBuxO8R2uavKbOA1tVJerKL7TVUVeRzEBjDZiGpY/JKwcF7ONK087H7YsQweIexRdkZLzBLJE6C26Ikb+DEOecEV/ocssLusEo03Yj+I7YVnFl2zTaCNuovjOWDbpwZ1s02gzNsNyizTK9xO1aIvQzpv0gSxFeb1dEQHbjTnAoaQb9M+oOCORh1zRX+4yyP4J27Jl6Ci6AiXjM8CVGT7/MeA+pDqdCyxB3pA+FeowlAV2fRQcYXuUmCYri9o/4c5GaxipR0J5C6ULm55iHbtR7vGHU67rSrQfMwwnaUZCeRl3NPo06AZ+kVJd+4DTMqyr0UKcSzod7n051LUTmaEnres8lC7PMAIZi5JEJulwj+ZY32MT1rUPODjH+hotwJEk63CX5FjXGQnremeOdTVahA6kcYrb6d6fc30fjVnPoDTbhuEkbjbWmQXUNW4kw3MLqKvRQlxEtA7XC+xSSE2jq6gXojMWw4jNukTLb1Fk8p7NgDcd9WomRxRTTaPVOBp/R1uOciMeRvH2bdsDZwKPE7wMNEsKIxU6GJrjZA5KIrk/7gjnRTMNDe5rGZzEaA2wXYH1MlqQHYCrgS/hThhTZrqQtfJpwHcLrothGIZhGIZhGIZhGIZhGIZhGIZhGIZhGJXk/wGqVZDI7eLUTAAAAABJRU5ErkJggg==;" vertex="1" parent="TELjzrbx2Z44kuAUIH1x-5">
          <mxGeometry x="33.55" y="50" width="110" height="110" as="geometry" />
        </mxCell>
        <mxCell id="TELjzrbx2Z44kuAUIH1x-3" value="Snoke&#xa;" style="shape=image;verticalLabelPosition=bottom;labelBackgroundColor=default;verticalAlign=top;aspect=fixed;imageAspect=0;image=data:image/png,iVBORw0KGgoAAAANSUhEUgAAAMgAAADICAYAAACtWK6eAAAABHNCSVQICAgIfAhkiAAAAAlwSFlzAAALEwAACxMBAJqcGAAAGpJJREFUeJztnXe4HVW1wH/35qbDBUMKJUgoEREiCpFIAhJAHwoigohPICgiiAUBeYqKSlERVNA8nwqiRlQE1IiKglKCIBgQEIKQ0EILEAihBUJIufe8P9ZsZ/beU0+bU9bv+/Z37zlnz8yasmeX1UBRFEVRFEVRFEVRFEVRFEVRFEVRFEVRFEVRFEVRFEVRFEVRFEVRFEVRFEVRFEVRFEVRFEVRFEVRFEVRFEVRlA6kp2wBupDxwHbA64GxQD+wfuQvwEvAisjf5cC9wELgmSbL29VoA2ksrwH2BvYCpiANY6Ma9/kssAi4C5gHXAu8UOM+FaVpvBX4KnALsA6oNLisA+YDZwDTmnB+ilKY8cBnkWFQoxtEVlkInASMa+gZdwk6xKqNPYHjgHcDQ3NusxJpSIuAx7DnGiuCOv3Yc5PXAm9A5i2jch5nLfBH4HvA9Tm3UZS6sDvwN7Lf5oPAncA3gX2BLajtpdQDTAL2A74FLMghQwWZq8yo4biKkotdgWtIfxhXA78GDgcmNEGmjYFZwG+DY6fJdhU6T1EawGuAn5L+8N0NnIgs3ZbFOOAzwD0kyzkIXABsWJKMSofxfuApkh+4K4DppUmXzG7AX0iW+0ngoNKkU9qe8cDvSX7ArkaGXK3ODGQOknQecym311PakGnA48Q/UAuAPcoTrWr2RIaBcef0KDC1PNGUduIY4ie7rwKnkH85txUZBpxK8vl9pDzRlFZnGDJ5jXvD3oToIDqF7RHte9y5nkd7vwSUBjASuJL4B+ZMoLc80RrGEEQ/E3fOlwPDyxNNaSVGEz+JfYnuWOU5BHiZ+EWIvFp7pUPpR4ZP7sNxH2La0S3sADyAfx1uIDTBV7qM0YjFrftQ/IvaTdLbkXHEm67MR3uSrqMXMeRzH4Zb6G4N8xjgVvzrchmdOQ9TEpiN/xD8HR1OAGxA/LDz3DKFUprHp/Fv/q3IkEsR1gNux79OnyhTKKXx7A0M4GuRNy5TqBZlU2AJ9rVaB8wsUSalgYwBnsC+4S8iKzhKPDsiy93Ra7YEsW5WOoy5+G/D/ypVovZgX/xe99JSJVLqzkfwx9OnlSlQm/F1/Ot3RKkSKXVjEv4wYT7QV6JM7cZQ/OXfFYivvNLm/BbfhGSbUiVqT7ZFAk5Er+UlpUqk1Mwe+EODj5YqUXvzcfzruVupEilV04tEFInezH+UKlH70wP8E/ua3oaGj2pLjsG+kYPAW0qVqDOYjt+LHFmqREphhuHrPC4sVaLO4lfY1/YxdNGjrTgS+wa+jGiG243jgDuAX9BaCs3N8Sfsh5cqkZKbHvzgBN8uVaLq2Bn7HAaAOTQnGF0eXIPPBeWKo+RlX+wbtxZ547Ub78If61eQVAetMOafhB+9Xi0T2oBrsW/aReWKUzVDgeuIbyQVRL/TX5p0wiXYMl1drjhKFlvhP0hvLlWi2ugBDiA5lOgiYOvSpPOHgYNIgG6lRfki9g3rlLD/fUjc37jgCkuR7FVlcaMjz8klyqJk8G/sm3VMueLUncmIYs5tJE8DrytJpk84stxZkhxKBjtg36g1dGbwheHAL/EbyQOU408/DlkIicrSSUH2OgbXJPvP5YrTUHqI96ufW5I8f3XkOL0kOZQU7sC+SbPKFacpxOUseX8JcriK2VtLkEFJYQNsr7cBusMtNM5P40Gab/YxFlnBMjKsQyPEtBT70b1a3e3w5wCHliCHa73wzhJkqDudEgxsD+fzDaVIUQ6LgB873324BDnca/62EmRQEriZ8sfhZfIGfPOaZocL/W9HhpuafHwlgSH4CWFaxaCvmbjBp91etdFs4hz/VTpghNL2J4AYzQ2LfH4SUZx1G/90Pm/V5OMvxb7uw+mAoA6d0EAmO58fKEWK8lnqfC5DSepee/fetB2d2EAeLEWK8hl0Pg8pQQZtIC2I9iCCG1/4+RJk0AbSgrjm3t3aQN7kfH64BBnca9/28cc6oYGMcT67Y/FuYEtsk/cKkr6g2TzpfG57a4ZOaCDrOZ9fLkWKcjne+Xwz8FwJcrjXXs1NWoCHsdfftyxXnKazI2LaH70GR5cki+vRubgkOZQIz2DflHHlitNUNkIy8kbPfwkwoiR5xjuydKM+quVYhX1TRpYrTtMYh2Tkdc3d31eiTKMcWV4pURYlIGpmXaE74sRuj+h73MZxQZlCIXPaqDwD5YqjgNj8dFMPMov44A1XY5vclMFotAdpOZ7Eviltb/+TQD8SgtRtGBXgShr/YhhGtuJvS0euxxssk5ID16OuE/0QpgEPEd84foe8uTdDnJTe2iAZLgqONz2lzp6ObDc3SBalABdj35SPlStO3Tkafxk3q3ylzjLsiMz1VgETU+p90pHjl3WWo+l0gqLwHufzzqVI0RhOB36E+J4X4ag6y3EKsvhxPunDJvfa/7vOcihVsA/2W8ttMO3KScT3Dr9GEmim9SC/r6McWyGrUauRYVwark5m7zrKoVRJP36U8Xb3KNwN/5xWAgcHv08ATgVuQax2VyMK05uRVA/1tIE6Nzh+VgKiiY68a/HNgJSScPPmtXNMrF78CCEvIBP1ZjMSsemqAFMz6h6FLbP6pLcQZ+APQ9qV92CfyyDl5d04LJDBdeeN4/fYcn+5gXIpBdkF++a8hPhEtyM/wz6XX5QoiwkpemxGvVGIUjAqdzunneg4evCTdu5fqkTVcxf2eexVkhzjkXnQarLnNO/DlvmRhkrWRDphmRfkplzmfNeusbHcZKMLS5FChnpDgGvIdt892Pn8u4ZIpNTEHvgT27Jtk6rhJezzKMvp6I/B8T+aUW8Evsy7NlY0pRp6gaewb9S+pUpUHS9gn0Oj3FaHAGcDn475rY/woc/SfbwXW94ldIdFdVvyA+ybVbb5dzUswz6H8Q04xlBC26o4r79dg9/yDO9cA8rv1klGpQG8HftmPUX7vc3cxQZ3TlIrmyGBpiuIRj5uOPSZ4PfzM/Y1hFBPYkonGot2DEPxhyhZCq5Wwx0m1ssqoBcx5Hw+2O9jJC/Fmt4la/4xA1vWZygnYJ1SgF9j37TPlytOYVZS/0n6bkgYILPPy5CkN0mYpea3ZOz3K9iytr31bjdwNPZNu7Lg9kOQGFPvBQ4HDkQUkc1IJ+D6dK+pcX9bAL+J7O8R4KAc25lG2p9R71pseT9cpZxKE3k99k1bnnO7ycB5hEMQtwwgJhen0riIgds7x3y4yv30AZ8jfNBfRkw/8ngdrhdsszKjXg++VfGk6sRVmkkP8CL2jUtz8gH4ArZT0oOIHuBXwB+QlG5umrN5iDKtnosABzvHuKqKfUzGNt78BcUm+hsS6pHS2Bpb1mcKS6qUxnyKmWvcjphVnEdyju9RSC7En2IHTbgDeHftIgNwFrbc5xbc/mBC/cVDVOeP0Ydci0HS42u9E1vW66o4llISZhXGlCzz97EUGx6sD5yIKMXMMa5BUqHVwk3Ycn+wwLZfJgyB9EvSJ/ejkbnIbETuBchLYi5wAuF5vT1lH655+5wCsiol813sm+fGrq0Xw4N9LyecVJ9FdZENN8AfxmVpsUGGeN8P6q8DjkupOwXpAd2VsqSStsDxWafut3LIqrQIZ2LfvC82+HivAf6PMFf7/YiOoAgfwJY5r+vw+UH9V0ge6k0GfosdZG8+sky7H7AT4pA1C+lFojnnj0zY52mOvKfmlFdpAb6MffO+WuV+RiOT1rxGj7sggQrMqtfZBbZ19Tdn59jGzFlWAjNjfh+JvCxMktNVwPfIjm81lTBy40ri52XufOlzOeRVWoSTsW/eN3NutyXyZrwRfwnzaWQiehYy6U+KNDIMaZDGp/wOYLscx3aHPbtk1P844bAuzuNwV6QnqyA9xxyKrWZNIAzCcDP+ap07jI0zelRalOOxb97sjPqbAD/Hj/P7KrJk7M4NKsCzyPAmSds8jfABfQX4RIYMiyP7vi+j7syITO4CxBAkXJBpoHeTHuwtjdcTegoe6vz2Q+zrkeV1qLQQx2LfvB9m1L+DcAgyBzGTj2aJ7UVCmr4bGfrc4+z/FsSrznVAG41YFJt6VyCNMY6dkBWlq5FAbUlsQmivdabz28ZIL2eGeGdRu0+M6Y3/5Xz/E+xrkDRXUVoQdwnyJxn1TwrqbFHgGNsjKzfPRo5zN/HpBw4iXOl6FjiiwHGi9CCNyCwrRxvkDMI4xUuRMKD1YDjSE7pB4Fwz93aOJNN1zMK+eY0MfDASmQ88HDnezfirWJsiPYipcyOiiS8SO+qEYNtl2FltjyW0BLiO6iyAhyG6oG1iZBqOHwTDXVT4QBXHVErCXTK9tAnHHIqYk0f9OS7GN3M5Atuk/Yac+x9LOB84IPiuD9tJ7Fzym5v3IG7Ks5HeIRqobgAZUp1Asv2WG+bnwJzHVVqAA7FvXj1DcWYxCllmjhoKnoy96rUe4pQ0L/gtD6MR3cU5weeNgu3NYkLeYduGiJIvKVq8WxYTPye60qnXju7NXcu7sG/eFTXur5roLxOxI88vIt10owhvJHzAl5Iv5cEY4Bv4hpx5ynL8+dk8p47G4W0j9sK+efMKbNuDxNS6GPGfMEOPF5FcJLOBd5B/KLMX4tttZJmLWMJWyyzC3ukWss1RRiDWyq6nZVJ5HFuTbspFzn7/4fxe1HJAKZHp2Ddvfs7ttkEeurwP0inIkCWLociwxljarkGWf99K/mXYKYi5SHRlLit65EFII886l5MIlYIzgb/H1FmFPUx0E4julPM8lBZgR+ybtyDHNtvhp5TOU15AbL3yGChuijzY0QlxHp+PaCqEFcCHMupvA/wlReanA5nNkvGhhBbQhxPfQCrYw6xFzm95rAWUFmEb/IlmGsPwlX9Fy8OI4V9e+c5FfL/PylH/Pcgw7fukm4sMBb6EnxrbLVcB/0M4VNsReYlUkCHho8H/0Ub2CLJqZlji7HPzHOehtAgTsG/esoz6rubdlDMIQ+QcQpgPMW6MHh2rj6nr2eRjGqGhZFxZiSxePOt8fz7h+T+NJMypBPVGIQ3uHMROLYo72d+gYWem1J3h2DcvK/iB64FoytsIFWLHEJqN/C0oSQ/jEzQvZcFI5AFOarTXEDac+5Hh2neRhnF68NfYoB1GOJy7JOWYvdh2a4N0TpznrsHNJZ72hns0Um+AMPf65kikjgpi/j0N/825mHhjxkHgOzQ2DcOehGbpbnmK0CNxU+ywP25Zg1jjDiOc1L8z5bjjnO3zBsZQWghjSWvKDil1P0X4RpxNaOo+GhnX3xl8XoS42s5BxvHnIk5Hbm6MaFmQcexq2BDbCNItP8GP6duHBIK7Pji/dci86XxCf4/PBdvfSXowijc7x+uUvJBdRdTuqUJ2zKZJhA+KWY4dHXyeiJ0WbRWioIsOay7B9gOJltVIQ6rGFTdKD6IHcaMvRkva0CiNHQgn91kKzY85x/xDlcdUSuQ07JtYRJv+WLDNpMh3IxCzkHsj+1yHGB1G82PMIFn38AxwOdJLnYy80Q9GhjN7IHqRXYKyK6KT2B9p3KcSmuW7ZQAJUVRBYuVGV5vysBFhj/ujHPXd4BJfKHg8pQV4E/6cIMtLz3BVsE2c6TpIxMGJxPcIvYTBn5tRFhIGoDYPeZH8HP2EytHbyA4u56Y7qACvK3A8pYVwV6f+Tb7ogsZJqMjQYQIyP3kgcrzL8aO116u8ivQqUU38j4PfTsgp88ZIo6ggiw1JzlyG1+IrU/+U81hKC+LaZFUQc40sO6qNCZVoH0+oMxbYB9GV/AN7PvIQoYvq+sjcZDn1aRhmOOXqJSD0U5+TcX4gvalR9t1HtqJvHL4ydTW1xwJTSuZn+A/ZRSQHXTBElYcLkN7kCiSsZ5xJymqkxziI+AbYh6z+HIqYw19AaPC3CrHteiooTyCN7G5kvH8Z4cJBWkoCk/gmzbTGaNuNg9UNpEd6BxlOxlkaaCSTDmA94jXM12D7ncdxJL7m2ZRXkLH7bMT/pJo0BfsE+/prRr1xhPqZNA/EEUGdAeIf+v0ILYsHEZfhrAn9m/DNSiqItXO7JSdSEtgcWxloyqNI7ow0hiORS/YLynRkLF4PzXHeBmLSLF+dY5+XB3VNqKMNEOPGaEDre5FVsyzeT3wUxstpzwSpSgqTsCfQ0TH9t8g3ea83JgB0VgMxkSLzBMCbTjgfegxby78MWUjIerh7gK/hX6sK4r6cNTxV2pRxhMaHbllMfmvcepG3gRj/77yBET5ImDtwNeIw9hHsl8CuwXGXAd+OfN9D/LzN9Eo6rOpw+pAeww0SZ8qfaZ5vQ94hljF12bnAvoci3oZub7E5om13z9u4zJ4d89sqqg9VpLQpe+NnaDVlLZIrZOPEreuDaSBZcwtjWpKlp0ijFxleuUacpuyLnyW4gqyutVsiVKVOzMDOLOWWl5Fxf1auvmp5R3CcLJ95M4+oduy/JWISk3Se85GexvUSXEKxYHpKB/J5kh8cUx6iMY1kT0JdRBImsedqYFuKr569l/SADQNIlBQ3/ds6xLxf6XKGYkdFTCoHJO2gAGOQCfRxiEPVTMI3eBKu78UyxKkpz2T5KyTPtUwxqZtd6+cLcp+V0vGciD+0Whr5vJbaDfKOxx//GyXkbSnbbRbUWUNoZVwh3Ze9B5lDZTX6CtJ7rI8/1Ny++Ckqncom2G/aAcS84rPIG3afGvbdg3gWmn1fiwRfiHoC3pWy/aSgziPBZ2NNO0iykjMajtSUNfh6oBuD+vs43y8scoJKd2CWUqOrOvXgHMJeKGo+Pwz4TfDbgynbm3TLJjLLthEZb4qp/2n8xrEc8a93J+FHBdt8yfn+BwXOT+kS3LfuqXXY5xGR/cWldH4t4VJqEpODOvcHn6PB4yrYS7BTCNOtmfI40qi2c75fTRj07lLntzSDyK5CI1GEuPOAN9e4v82QxJ6GSfjX++Xg76iU/RhjwkEkPtb7EMvei4Pvo9r1c7AVg88huo378BcZrkVWt8DPQahDLMXDDUTwSI37u5BwzmF8Qf6EHUyhj3D4lcQbCXsCozD8JOES8a1BvejQy5Ro1tvrnd+OCb7vxQ80V0ZcL6XFGYa/kjO+yn1tgegR1iJKup2QoGwVRPn2jkjdaASVOHZxZLoWmfivH3xeFXz+VEw9Qz9+aCKTt8Qdei2t6ow7FB1ihaxBJupRqk1j9iHEaepSRMfyL2SuMB95MK9CvP7GIs5XkOy0FPUzeY4wTtdLyDLxCMSvxTWLuS7y/17Yfh93E8573JUw9xp0NdpAbFyTj2rTipmhTTRlwBJgdyQi/GrkQb+fcKKcFHPXpFOrIA5cSyK/rQj+rgc872wX7f3cMD7RgNluZqi/J8ihKN5wZgAZ2xfBDNXWkTz5noxY8MYtubp8I/j9/JjfHg9+24zQdN6UaFbae53f3hV8vwO+pr3eQe6UDsMN0fnjgtubyPIP5Ki7P6EL7ELEc7EXmVO8DjuV2+7Otj2EIVJHID1RNHDEINJwNnfOZw3hfMfNVJs3j4rSxRj31qi+oIjZ+87BdrfkrD8KO2rjWvwJdVzvsQX+pNq12D0RcZSKfnd9UHdizHH2zymz0sX04sf1/VqB7U3AuluzKkbYEHHiephwyPMEEt5nr4RtjPXtXyLfuTZlC/DTNX8pqPtN5/t7UG9BJSduvpDl5PdZN8aFadrxNIaSz+/jh8FxTol8twl+bGC3l5iKTOpdE/ikOZCieIzED/R2bM5te5CVpqysVrViIja6brhz8RWGpjwZyHec8/3TNDZNg9KBuFE97iX/EKSf6uJkFWE+8caKJnhcXPlfZAjp5hQ5o8GyKh3IJviGf/Wy8G00f8ZvHIPIEu6BzvdFFyEU5T/8HPthuibndkMQf/eZNGboMjzY93Tilb1bE5qwmHJh8JubwfZnDZBP6RJcA8YKskqVxtbYcWyfQSbS9fJpPwA7FOhd2HlMDNOQaIpPIe6zI5H8I+75vLFOcildyjzsB+pXGfVNiM/F2E5YzwNfJz2NcxoTsf027ib0pb8xZbso7gQ+Kx6XomSyL/ZDtY741AOGnyKNypiZzEQsa6PLrpchcW/z9CpTEL8SY5L+ErIKZSx6b0CWfLPYFj8TblaqNUXJpAc/Ovx5VexnGtIDRE3q1yGmLXMQD8bjg3IG0lM9FKk7iDhJZeXxSGKOcw63V7kfRfE4DH/lZ2LqFsmMRxrBdfirZHHlaSTIQy2JarbCVxgeUsP+ugY1LcjHEMT8ZKvId+eRnH0qLyMRZ6o3IA3O5HJ/AUnNcAdiLlKp8ThzsLP83o84Sg3WuF9F+Q9HYb+B12A3mFZlW3zzk1mlSqR0JH34GuisFa1WwIQWiloEZOVoVJSqcOcig7R2/Nrd8ec0OvcogM5BitGDrP5EQwLdjngiFh3Pj0GCuU1FnKM2Jcw/aEKf3o94Bl6PGE8WYUiwbVQR+E9CZaGiNIQ98N/KefOSj0aCsv0Nf16QVgYQE5GPkZ7EM4rJ9R7t7Wbk3FZRauJi7IdvJX7wtSj9wGnYCXteRRLnnIEEh5iBKAWnBP9/ADgdCbAQjVv1AmJpvCHJTMGPdXVhSn1FqSsT8LNT3UV8bKsjCGNiVRDN92Hk7wkI9nso0vOY/SwHjsYfJvcT+rmbsozslNeKUlc+iD8UuhzbG/Atkd+uR3w1amUatn1Y1F99GH60lApwUB2OqyiFcc03KoiPuHlbj0aCYh/agGMfgngIfj/4PBYxx3flqcYsRlHqwggkeon7UC5DzElGNEGGkcBnELN6V46bUFdapWTGYoftiZalwBdJDitaC+ORuFnR+U203IkGoVZahLH40dOj5VVEo30wtfmq9yNDq7mkGzrOw44ir1SJKgrrRx+SXPMU0huBMXG/Dcn49BiyIrUCse8CGRatjzS8LRDDwqmIYWMfyaxA0lZ/B9GdKErLsRFwJvAi+RWBtRajG9EhldI29CMadjdwdD3LQsS7sIhORVFajmlIaFFXgVdNuQcJGzoVpeHoHKT5TECMG6cg/iSbIUOj0YT5Bdcg5ivPIREUFyNuv7ciq1aKoiiKoiiKoiiKoiiKoiiKoiiKoiiKoiiKoiiKoiiKoiiKoiiKoiiKoiiKoijN4P8B9gTpuvdlodYAAAAASUVORK5CYII=;" vertex="1" parent="TELjzrbx2Z44kuAUIH1x-5">
          <mxGeometry x="171" y="20" width="140" height="140" as="geometry" />
        </mxCell>
        <mxCell id="TELjzrbx2Z44kuAUIH1x-7" value="Rey" style="shape=image;verticalLabelPosition=bottom;labelBackgroundColor=default;verticalAlign=top;aspect=fixed;imageAspect=0;image=https://storage.googleapis.com/multi-static-content/thumbs/artage-io-thumb-d9c690420f60cd2bbec60d900ae7a756.svg;" vertex="1" parent="TELjzrbx2Z44kuAUIH1x-5">
          <mxGeometry x="35.33" y="230" width="106.45" height="129" as="geometry" />
        </mxCell>
        <mxCell id="TELjzrbx2Z44kuAUIH1x-8" value="Leia" style="shape=image;verticalLabelPosition=bottom;labelBackgroundColor=default;verticalAlign=top;aspect=fixed;imageAspect=0;image=https://icons-for-free.com/iconfiles/png/512/fisher+lady+princess+leia+starwars+icon-1320166696988333574.png;" vertex="1" parent="TELjzrbx2Z44kuAUIH1x-5">
          <mxGeometry x="160" y="200" width="162" height="162" as="geometry" />
        </mxCell>
        <mxCell id="TELjzrbx2Z44kuAUIH1x-9" value="Ship" style="swimlane;" vertex="1" parent="1">
          <mxGeometry x="570" y="70" width="280" height="460" as="geometry" />
        </mxCell>
      </root>
    </mxGraphModel>
  </diagram>
</mxfile>
